<svg xmlns="http://www.w3.org/2000/svg" width="1000" height="674" viewBox="0 0 1000 674" shape-rendering="crispEdges"><style>.flk{animation:flk 4s steps(1) infinite}@keyframes flk{0%{opacity:1}50%{opacity:.25}100%{opacity:1}}.eye{animation:eye 6s steps(1) infinite}@keyframes eye{0%,92%{fill:#050506}93%,97%{fill:#d4a017}98%{fill:#050506}}.blink{animation:blink 1.1s steps(1) infinite}@keyframes blink{50%{opacity:0}}@media (prefers-reduced-motion:reduce){*{animation:none!important}}</style><rect width="1000" height="674" fill="#111316"/><defs><pattern id="scan" width="4" height="4" patternUnits="userSpaceOnUse"><rect width="4" height="1" fill="#ffffff" opacity=".018"/></pattern></defs><rect width="1000" height="674" fill="url(#scan)"/><g fill="#e6e1d6"><rect x="40" y="44" width="16" height="4"/><rect x="40" y="48" width="4" height="4"/><rect x="56" y="48" width="4" height="4"/><rect x="40" y="52" width="4" height="4"/><rect x="56" y="52" width="4" height="4"/><rect x="40" y="56" width="16" height="4"/><rect x="40" y="60" width="4" height="4"/><rect x="56" y="60" width="4" height="4"/><rect x="40" y="64" width="4" height="4"/><rect x="56" y="64" width="4" height="4"/><rect x="40" y="68" width="16" height="4"/><rect x="64" y="44" width="20" height="4"/><rect x="64" y="48" width="4" height="4"/><rect x="64" y="52" width="4" height="4"/><rect x="64" y="56" width="16" height="4"/><rect x="64" y="60" width="4" height="4"/><rect x="64" y="64" width="4" height="4"/><rect x="64" y="68" width="20" height="4"/><rect x="88" y="44" width="4" height="4"/><rect x="104" y="44" width="4" height="4"/><rect x="88" y="48" width="4" height="4"/><rect x="104" y="48" width="4" height="4"/><rect x="88" y="52" width="4" height="4"/><rect x="104" y="52" width="4" height="4"/><rect x="88" y="56" width="20" height="4"/><rect x="88" y="60" width="4" height="4"/><rect x="104" y="60" width="4" height="4"/><rect x="88" y="64" width="4" height="4"/><rect x="104" y="64" width="4" height="4"/><rect x="88" y="68" width="4" height="4"/><rect x="104" y="68" width="4" height="4"/><rect x="112" y="44" width="20" height="4"/><rect x="120" y="48" width="4" height="4"/><rect x="120" y="52" width="4" height="4"/><rect x="120" y="56" width="4" height="4"/><rect x="120" y="60" width="4" height="4"/><rect x="120" y="64" width="4" height="4"/><rect x="112" y="68" width="20" height="4"/><rect x="136" y="44" width="4" height="4"/><rect x="152" y="44" width="4" height="4"/><rect x="136" y="48" width="8" height="4"/><rect x="152" y="48" width="4" height="4"/><rect x="136" y="52" width="4" height="4"/><rect x="144" y="52" width="4" height="4"/><rect x="152" y="52" width="4" height="4"/><rect x="136" y="56" width="4" height="4"/><rect x="148" y="56" width="8" height="4"/><rect x="136" y="60" width="4" height="4"/><rect x="152" y="60" width="4" height="4"/><rect x="136" y="64" width="4" height="4"/><rect x="152" y="64" width="4" height="4"/><rect x="136" y="68" width="4" height="4"/><rect x="152" y="68" width="4" height="4"/><rect x="160" y="44" width="16" height="4"/><rect x="160" y="48" width="4" height="4"/><rect x="176" y="48" width="4" height="4"/><rect x="160" y="52" width="4" height="4"/><rect x="176" y="52" width="4" height="4"/><rect x="160" y="56" width="4" height="4"/><rect x="176" y="56" width="4" height="4"/><rect x="160" y="60" width="4" height="4"/><rect x="176" y="60" width="4" height="4"/><rect x="160" y="64" width="4" height="4"/><rect x="176" y="64" width="4" height="4"/><rect x="160" y="68" width="16" height="4"/><rect x="208" y="44" width="20" height="4"/><rect x="216" y="48" width="4" height="4"/><rect x="216" y="52" width="4" height="4"/><rect x="216" y="56" width="4" height="4"/><rect x="216" y="60" width="4" height="4"/><rect x="216" y="64" width="4" height="4"/><rect x="216" y="68" width="4" height="4"/><rect x="232" y="44" width="4" height="4"/><rect x="248" y="44" width="4" height="4"/><rect x="232" y="48" width="4" height="4"/><rect x="248" y="48" width="4" height="4"/><rect x="232" y="52" width="4" height="4"/><rect x="248" y="52" width="4" height="4"/><rect x="232" y="56" width="20" height="4"/><rect x="232" y="60" width="4" height="4"/><rect x="248" y="60" width="4" height="4"/><rect x="232" y="64" width="4" height="4"/><rect x="248" y="64" width="4" height="4"/><rect x="232" y="68" width="4" height="4"/><rect x="248" y="68" width="4" height="4"/><rect x="256" y="44" width="20" height="4"/><rect x="256" y="48" width="4" height="4"/><rect x="256" y="52" width="4" height="4"/><rect x="256" y="56" width="16" height="4"/><rect x="256" y="60" width="4" height="4"/><rect x="256" y="64" width="4" height="4"/><rect x="256" y="68" width="20" height="4"/><rect x="304" y="44" width="4" height="4"/><rect x="320" y="44" width="4" height="4"/><rect x="304" y="48" width="8" height="4"/><rect x="316" y="48" width="8" height="4"/><rect x="304" y="52" width="4" height="4"/><rect x="312" y="52" width="4" height="4"/><rect x="320" y="52" width="4" height="4"/><rect x="304" y="56" width="4" height="4"/><rect x="312" y="56" width="4" height="4"/><rect x="320" y="56" width="4" height="4"/><rect x="304" y="60" width="4" height="4"/><rect x="320" y="60" width="4" height="4"/><rect x="304" y="64" width="4" height="4"/><rect x="320" y="64" width="4" height="4"/><rect x="304" y="68" width="4" height="4"/><rect x="320" y="68" width="4" height="4"/><rect x="332" y="44" width="12" height="4"/><rect x="328" y="48" width="4" height="4"/><rect x="344" y="48" width="4" height="4"/><rect x="328" y="52" width="4" height="4"/><rect x="344" y="52" width="4" height="4"/><rect x="328" y="56" width="20" height="4"/><rect x="328" y="60" width="4" height="4"/><rect x="344" y="60" width="4" height="4"/><rect x="328" y="64" width="4" height="4"/><rect x="344" y="64" width="4" height="4"/><rect x="328" y="68" width="4" height="4"/><rect x="344" y="68" width="4" height="4"/><rect x="356" y="44" width="16" height="4"/><rect x="352" y="48" width="4" height="4"/><rect x="352" y="52" width="4" height="4"/><rect x="356" y="56" width="12" height="4"/><rect x="368" y="60" width="4" height="4"/><rect x="368" y="64" width="4" height="4"/><rect x="352" y="68" width="16" height="4"/><rect x="376" y="44" width="4" height="4"/><rect x="392" y="44" width="4" height="4"/><rect x="376" y="48" width="4" height="4"/><rect x="388" y="48" width="4" height="4"/><rect x="376" y="52" width="4" height="4"/><rect x="384" y="52" width="4" height="4"/><rect x="376" y="56" width="8" height="4"/><rect x="376" y="60" width="4" height="4"/><rect x="384" y="60" width="4" height="4"/><rect x="376" y="64" width="4" height="4"/><rect x="388" y="64" width="4" height="4"/><rect x="376" y="68" width="4" height="4"/><rect x="392" y="68" width="4" height="4"/></g><rect class="flk" style="animation-delay:1.13s" x="420" y="67" width="24" height="5" fill="#b9bfc6"/><rect x="444" y="62" width="36" height="10" fill="#555c64"/><rect x="480" y="67" width="6" height="5" fill="#7d858e"/><rect x="486" y="62" width="30" height="10" fill="#e6e1d6"/><rect x="516" y="62" width="6" height="10" fill="#555c64"/><rect x="522" y="62" width="30" height="10" fill="#8a6a12"/><rect x="558" y="62" width="18" height="10" fill="#e6e1d6"/><rect x="582" y="67" width="12" height="5" fill="#7d858e"/><rect x="594" y="62" width="12" height="10" fill="#8a6a12"/><rect x="606" y="67" width="12" height="5" fill="#b9bfc6"/><rect x="624" y="62" width="24" height="10" fill="#b9bfc6"/><rect x="654" y="67" width="24" height="5" fill="#2b2f34"/><rect x="678" y="67" width="24" height="5" fill="#555c64"/><rect x="702" y="62" width="12" height="10" fill="#2b2f34"/><rect x="714" y="67" width="12" height="5" fill="#d4a017"/><rect x="726" y="62" width="24" height="10" fill="#2b2f34"/><rect x="750" y="62" width="12" height="10" fill="#8a6a12"/><rect x="762" y="62" width="12" height="10" fill="#2b2f34"/><rect class="flk" style="animation-delay:0.75s" x="780" y="62" width="18" height="10" fill="#2b2f34"/><rect x="798" y="67" width="12" height="5" fill="#555c64"/><rect x="810" y="62" width="18" height="10" fill="#7d858e"/><rect x="828" y="67" width="6" height="5" fill="#d4a017"/><rect x="834" y="62" width="6" height="10" fill="#555c64"/><rect x="840" y="62" width="18" height="10" fill="#7d858e"/><rect x="858" y="62" width="30" height="10" fill="#555c64"/><rect x="888" y="62" width="30" height="10" fill="#2b2f34"/><rect class="flk" style="animation-delay:2.06s" x="924" y="62" width="18" height="10" fill="#555c64"/><rect x="942" y="62" width="6" height="10" fill="#555c64"/><rect class="flk" style="animation-delay:2.93s" x="954" y="62" width="6" height="10" fill="#b9bfc6"/><text x="40" y="102" fill="#c9ced4" font-family="'JetBrains Mono','SFMono-Regular',Consolas,'Liberation Mono',Menlo,monospace" font-size="16.5" xml:space="preserve">I'm Sajid, a CS grad (KIIT '26) and software engineer in Bengaluru. I build AI systems</text><text x="40" y="127" fill="#c9ced4" font-family="'JetBrains Mono','SFMono-Regular',Consolas,'Liberation Mono',Menlo,monospace" font-size="16.5" xml:space="preserve">where the model never gets the final word: its predictions feed a deterministic layer that</text><text x="40" y="152" fill="#c9ced4" font-family="'JetBrains Mono','SFMono-Regular',Consolas,'Liberation Mono',Menlo,monospace" font-size="16.5" xml:space="preserve">decides and acts safely, and the AI explains the reasoning on top. Co-author of an IEEE</text><text x="40" y="177" fill="#c9ced4" font-family="'JetBrains Mono','SFMono-Regular',Consolas,'Liberation Mono',Menlo,monospace" font-size="16.5" xml:space="preserve">paper on ensemble learning.</text><g fill="#e6e1d6"><rect x="44" y="228" width="16" height="4"/><rect x="40" y="232" width="4" height="4"/><rect x="40" y="236" width="4" height="4"/><rect x="40" y="240" width="4" height="4"/><rect x="40" y="244" width="4" height="4"/><rect x="40" y="248" width="4" height="4"/><rect x="44" y="252" width="16" height="4"/><rect x="64" y="228" width="4" height="4"/><rect x="80" y="228" width="4" height="4"/><rect x="64" y="232" width="4" height="4"/><rect x="80" y="232" width="4" height="4"/><rect x="64" y="236" width="4" height="4"/><rect x="80" y="236" width="4" height="4"/><rect x="64" y="240" width="4" height="4"/><rect x="80" y="240" width="4" height="4"/><rect x="64" y="244" width="4" height="4"/><rect x="80" y="244" width="4" height="4"/><rect x="64" y="248" width="4" height="4"/><rect x="80" y="248" width="4" height="4"/><rect x="68" y="252" width="12" height="4"/><rect x="88" y="228" width="16" height="4"/><rect x="88" y="232" width="4" height="4"/><rect x="104" y="232" width="4" height="4"/><rect x="88" y="236" width="4" height="4"/><rect x="104" y="236" width="4" height="4"/><rect x="88" y="240" width="16" height="4"/><rect x="88" y="244" width="4" height="4"/><rect x="96" y="244" width="4" height="4"/><rect x="88" y="248" width="4" height="4"/><rect x="100" y="248" width="4" height="4"/><rect x="88" y="252" width="4" height="4"/><rect x="104" y="252" width="4" height="4"/><rect x="112" y="228" width="16" height="4"/><rect x="112" y="232" width="4" height="4"/><rect x="128" y="232" width="4" height="4"/><rect x="112" y="236" width="4" height="4"/><rect x="128" y="236" width="4" height="4"/><rect x="112" y="240" width="16" height="4"/><rect x="112" y="244" width="4" height="4"/><rect x="120" y="244" width="4" height="4"/><rect x="112" y="248" width="4" height="4"/><rect x="124" y="248" width="4" height="4"/><rect x="112" y="252" width="4" height="4"/><rect x="128" y="252" width="4" height="4"/><rect x="136" y="228" width="20" height="4"/><rect x="136" y="232" width="4" height="4"/><rect x="136" y="236" width="4" height="4"/><rect x="136" y="240" width="16" height="4"/><rect x="136" y="244" width="4" height="4"/><rect x="136" y="248" width="4" height="4"/><rect x="136" y="252" width="20" height="4"/><rect x="160" y="228" width="4" height="4"/><rect x="176" y="228" width="4" height="4"/><rect x="160" y="232" width="8" height="4"/><rect x="176" y="232" width="4" height="4"/><rect x="160" y="236" width="4" height="4"/><rect x="168" y="236" width="4" height="4"/><rect x="176" y="236" width="4" height="4"/><rect x="160" y="240" width="4" height="4"/><rect x="172" y="240" width="8" height="4"/><rect x="160" y="244" width="4" height="4"/><rect x="176" y="244" width="4" height="4"/><rect x="160" y="248" width="4" height="4"/><rect x="176" y="248" width="4" height="4"/><rect x="160" y="252" width="4" height="4"/><rect x="176" y="252" width="4" height="4"/><rect x="184" y="228" width="20" height="4"/><rect x="192" y="232" width="4" height="4"/><rect x="192" y="236" width="4" height="4"/><rect x="192" y="240" width="4" height="4"/><rect x="192" y="244" width="4" height="4"/><rect x="192" y="248" width="4" height="4"/><rect x="192" y="252" width="4" height="4"/><rect x="208" y="228" width="4" height="4"/><rect x="208" y="232" width="4" height="4"/><rect x="208" y="236" width="4" height="4"/><rect x="208" y="240" width="4" height="4"/><rect x="208" y="244" width="4" height="4"/><rect x="208" y="248" width="4" height="4"/><rect x="208" y="252" width="20" height="4"/><rect x="232" y="228" width="4" height="4"/><rect x="248" y="228" width="4" height="4"/><rect x="232" y="232" width="4" height="4"/><rect x="248" y="232" width="4" height="4"/><rect x="236" y="236" width="4" height="4"/><rect x="244" y="236" width="4" height="4"/><rect x="240" y="240" width="4" height="4"/><rect x="240" y="244" width="4" height="4"/><rect x="240" y="248" width="4" height="4"/><rect x="240" y="252" width="4" height="4"/></g><rect x="276" y="246" width="24" height="10" fill="#555c64"/><rect x="300" y="246" width="36" height="10" fill="#555c64"/><rect x="336" y="246" width="30" height="10" fill="#2b2f34"/><rect x="366" y="246" width="24" height="10" fill="#8a6a12"/><rect x="390" y="251" width="18" height="5" fill="#b9bfc6"/><rect x="414" y="246" width="30" height="10" fill="#2b2f34"/><rect x="450" y="246" width="36" height="10" fill="#555c64"/><rect x="486" y="246" width="6" height="10" fill="#2b2f34"/><rect x="492" y="246" width="6" height="10" fill="#555c64"/><rect x="498" y="246" width="12" height="10" fill="#7d858e"/><rect x="516" y="246" width="36" height="10" fill="#2b2f34"/><rect x="552" y="246" width="24" height="10" fill="#555c64"/><rect x="576" y="251" width="36" height="5" fill="#7d858e"/><rect x="612" y="246" width="6" height="10" fill="#b9bfc6"/><rect x="618" y="251" width="36" height="5" fill="#2b2f34"/><rect x="654" y="251" width="6" height="5" fill="#c4532d"/><rect x="660" y="246" width="36" height="10" fill="#e6e1d6"/><rect x="696" y="246" width="6" height="10" fill="#c4532d"/><rect x="702" y="246" width="24" height="10" fill="#b9bfc6"/><rect x="732" y="246" width="36" height="10" fill="#555c64"/><rect x="774" y="246" width="24" height="10" fill="#8a6a12"/><rect x="798" y="251" width="18" height="5" fill="#e6e1d6"/><rect x="816" y="246" width="12" height="10" fill="#2b2f34"/><rect x="834" y="251" width="12" height="5" fill="#7d858e"/><rect x="846" y="251" width="12" height="5" fill="#555c64"/><rect x="858" y="246" width="30" height="10" fill="#e6e1d6"/><rect class="flk" style="animation-delay:2.36s" x="888" y="246" width="18" height="10" fill="#8a6a12"/><rect x="906" y="251" width="36" height="5" fill="#2b2f34"/><rect class="flk" style="animation-delay:2.67s" x="948" y="246" width="12" height="10" fill="#c4532d"/><text x="40" y="286" fill="#c9ced4" font-family="'JetBrains Mono','SFMono-Regular',Consolas,'Liberation Mono',Menlo,monospace" font-size="16.5" xml:space="preserve">Software Engineer Intern at Telit Cinterion (Sep 2026 - present), working on backend and</text><text x="40" y="311" fill="#c9ced4" font-family="'JetBrains Mono','SFMono-Regular',Consolas,'Liberation Mono',Menlo,monospace" font-size="16.5" xml:space="preserve">applied AI. After hours: Sentinel (cost-weighted fraud decisioning), Paygate (a payment-</text><text x="40" y="336" fill="#c9ced4" font-family="'JetBrains Mono','SFMono-Regular',Consolas,'Liberation Mono',Menlo,monospace" font-size="16.5" xml:space="preserve">auth state machine) and RAG Sentinel (retrieval that abstains instead of hallucinating).</text><g fill="#e6e1d6"><rect x="40" y="387" width="20" height="4"/><rect x="48" y="391" width="4" height="4"/><rect x="48" y="395" width="4" height="4"/><rect x="48" y="399" width="4" height="4"/><rect x="48" y="403" width="4" height="4"/><rect x="48" y="407" width="4" height="4"/><rect x="48" y="411" width="4" height="4"/><rect x="64" y="387" width="4" height="4"/><rect x="80" y="387" width="4" height="4"/><rect x="64" y="391" width="4" height="4"/><rect x="80" y="391" width="4" height="4"/><rect x="64" y="395" width="4" height="4"/><rect x="80" y="395" width="4" height="4"/><rect x="64" y="399" width="20" height="4"/><rect x="64" y="403" width="4" height="4"/><rect x="80" y="403" width="4" height="4"/><rect x="64" y="407" width="4" height="4"/><rect x="80" y="407" width="4" height="4"/><rect x="64" y="411" width="4" height="4"/><rect x="80" y="411" width="4" height="4"/><rect x="88" y="387" width="20" height="4"/><rect x="88" y="391" width="4" height="4"/><rect x="88" y="395" width="4" height="4"/><rect x="88" y="399" width="16" height="4"/><rect x="88" y="403" width="4" height="4"/><rect x="88" y="407" width="4" height="4"/><rect x="88" y="411" width="20" height="4"/><rect x="140" y="387" width="16" height="4"/><rect x="136" y="391" width="4" height="4"/><rect x="136" y="395" width="4" height="4"/><rect x="136" y="399" width="4" height="4"/><rect x="136" y="403" width="4" height="4"/><rect x="136" y="407" width="4" height="4"/><rect x="140" y="411" width="16" height="4"/><rect x="164" y="387" width="12" height="4"/><rect x="160" y="391" width="4" height="4"/><rect x="176" y="391" width="4" height="4"/><rect x="160" y="395" width="4" height="4"/><rect x="176" y="395" width="4" height="4"/><rect x="160" y="399" width="4" height="4"/><rect x="176" y="399" width="4" height="4"/><rect x="160" y="403" width="4" height="4"/><rect x="176" y="403" width="4" height="4"/><rect x="160" y="407" width="4" height="4"/><rect x="176" y="407" width="4" height="4"/><rect x="164" y="411" width="12" height="4"/><rect x="184" y="387" width="16" height="4"/><rect x="184" y="391" width="4" height="4"/><rect x="200" y="391" width="4" height="4"/><rect x="184" y="395" width="4" height="4"/><rect x="200" y="395" width="4" height="4"/><rect x="184" y="399" width="4" height="4"/><rect x="200" y="399" width="4" height="4"/><rect x="184" y="403" width="4" height="4"/><rect x="200" y="403" width="4" height="4"/><rect x="184" y="407" width="4" height="4"/><rect x="200" y="407" width="4" height="4"/><rect x="184" y="411" width="16" height="4"/><rect x="208" y="387" width="20" height="4"/><rect x="208" y="391" width="4" height="4"/><rect x="208" y="395" width="4" height="4"/><rect x="208" y="399" width="16" height="4"/><rect x="208" y="403" width="4" height="4"/><rect x="208" y="407" width="4" height="4"/><rect x="208" y="411" width="20" height="4"/></g><rect x="252" y="410" width="36" height="5" fill="#2b2f34"/><rect x="294" y="410" width="36" height="5" fill="#2b2f34"/><rect x="336" y="405" width="24" height="10" fill="#2b2f34"/><rect x="360" y="410" width="6" height="5" fill="#b9bfc6"/><rect x="366" y="405" width="12" height="10" fill="#7d858e"/><rect x="384" y="405" width="12" height="10" fill="#e6e1d6"/><rect x="402" y="405" width="18" height="10" fill="#2b2f34"/><rect x="420" y="405" width="30" height="10" fill="#555c64"/><rect x="450" y="405" width="24" height="10" fill="#2b2f34"/><rect class="flk" style="animation-delay:2.65s" x="474" y="410" width="18" height="5" fill="#b9bfc6"/><rect x="492" y="405" width="6" height="10" fill="#d4a017"/><rect x="498" y="405" width="18" height="10" fill="#2b2f34"/><rect x="516" y="410" width="36" height="5" fill="#b9bfc6"/><rect x="552" y="405" width="12" height="10" fill="#2b2f34"/><rect x="564" y="410" width="36" height="5" fill="#7d858e"/><rect x="600" y="405" width="6" height="10" fill="#555c64"/><rect x="606" y="410" width="6" height="5" fill="#555c64"/><rect x="612" y="410" width="36" height="5" fill="#7d858e"/><rect x="648" y="410" width="12" height="5" fill="#e6e1d6"/><rect x="660" y="405" width="30" height="10" fill="#555c64"/><rect x="696" y="405" width="24" height="10" fill="#2b2f34"/><rect x="726" y="405" width="12" height="10" fill="#d4a017"/><rect x="738" y="410" width="30" height="5" fill="#c4532d"/><rect x="768" y="405" width="6" height="10" fill="#e6e1d6"/><rect x="774" y="405" width="18" height="10" fill="#d4a017"/><rect x="792" y="410" width="24" height="5" fill="#2b2f34"/><rect x="816" y="410" width="30" height="5" fill="#d4a017"/><rect x="846" y="410" width="18" height="5" fill="#d4a017"/><rect x="870" y="410" width="12" height="5" fill="#7d858e"/><rect x="882" y="405" width="24" height="10" fill="#2b2f34"/><rect x="906" y="405" width="18" height="10" fill="#555c64"/><rect x="924" y="405" width="6" height="10" fill="#e6e1d6"/><rect x="930" y="405" width="12" height="10" fill="#2b2f34"/><rect x="948" y="405" width="12" height="10" fill="#d4a017"/><text x="40" y="445" fill="#c9ced4" font-family="'JetBrains Mono','SFMono-Regular',Consolas,'Liberation Mono',Menlo,monospace" font-size="16.5" xml:space="preserve">Models predict. Policy decides. The ML stays behind a mask of guardrails, state machines</text><text x="40" y="470" fill="#c9ced4" font-family="'JetBrains Mono','SFMono-Regular',Consolas,'Liberation Mono',Menlo,monospace" font-size="16.5" xml:space="preserve">and hash-chained audit trails, and a model's confidence has to come with a reason: Grad-</text><text x="40" y="495" fill="#c9ced4" font-family="'JetBrains Mono','SFMono-Regular',Consolas,'Liberation Mono',Menlo,monospace" font-size="16.5" xml:space="preserve">CAM, reason codes, evidence.</text><g fill="#e6e1d6"><rect x="40" y="546" width="4" height="4"/><rect x="56" y="546" width="4" height="4"/><rect x="40" y="550" width="8" height="4"/><rect x="56" y="550" width="4" height="4"/><rect x="40" y="554" width="4" height="4"/><rect x="48" y="554" width="4" height="4"/><rect x="56" y="554" width="4" height="4"/><rect x="40" y="558" width="4" height="4"/><rect x="52" y="558" width="8" height="4"/><rect x="40" y="562" width="4" height="4"/><rect x="56" y="562" width="4" height="4"/><rect x="40" y="566" width="4" height="4"/><rect x="56" y="566" width="4" height="4"/><rect x="40" y="570" width="4" height="4"/><rect x="56" y="570" width="4" height="4"/><rect x="64" y="546" width="20" height="4"/><rect x="64" y="550" width="4" height="4"/><rect x="64" y="554" width="4" height="4"/><rect x="64" y="558" width="16" height="4"/><rect x="64" y="562" width="4" height="4"/><rect x="64" y="566" width="4" height="4"/><rect x="64" y="570" width="20" height="4"/><rect x="88" y="546" width="4" height="4"/><rect x="104" y="546" width="4" height="4"/><rect x="88" y="550" width="4" height="4"/><rect x="104" y="550" width="4" height="4"/><rect x="92" y="554" width="4" height="4"/><rect x="100" y="554" width="4" height="4"/><rect x="96" y="558" width="4" height="4"/><rect x="92" y="562" width="4" height="4"/><rect x="100" y="562" width="4" height="4"/><rect x="88" y="566" width="4" height="4"/><rect x="104" y="566" width="4" height="4"/><rect x="88" y="570" width="4" height="4"/><rect x="104" y="570" width="4" height="4"/><rect x="112" y="546" width="20" height="4"/><rect x="120" y="550" width="4" height="4"/><rect x="120" y="554" width="4" height="4"/><rect x="120" y="558" width="4" height="4"/><rect x="120" y="562" width="4" height="4"/><rect x="120" y="566" width="4" height="4"/><rect x="120" y="570" width="4" height="4"/></g><rect x="156" y="564" width="6" height="10" fill="#555c64"/><rect x="162" y="564" width="36" height="10" fill="#d4a017"/><rect x="198" y="564" width="30" height="10" fill="#7d858e"/><rect x="228" y="564" width="24" height="10" fill="#555c64"/><rect x="252" y="564" width="24" height="10" fill="#2b2f34"/><rect x="276" y="569" width="24" height="5" fill="#b9bfc6"/><rect x="306" y="564" width="6" height="10" fill="#2b2f34"/><rect x="318" y="564" width="12" height="10" fill="#555c64"/><rect x="336" y="569" width="30" height="5" fill="#b9bfc6"/><rect x="372" y="569" width="30" height="5" fill="#7d858e"/><rect x="402" y="564" width="30" height="10" fill="#b9bfc6"/><rect x="432" y="569" width="18" height="5" fill="#2b2f34"/><rect x="450" y="569" width="36" height="5" fill="#b9bfc6"/><rect x="486" y="569" width="36" height="5" fill="#8a6a12"/><rect x="522" y="564" width="24" height="10" fill="#b9bfc6"/><rect x="546" y="569" width="36" height="5" fill="#e6e1d6"/><rect class="flk" style="animation-delay:0.01s" x="588" y="569" width="30" height="5" fill="#7d858e"/><rect x="618" y="564" width="6" height="10" fill="#2b2f34"/><rect x="624" y="569" width="18" height="5" fill="#2b2f34"/><rect x="642" y="564" width="36" height="10" fill="#7d858e"/><rect x="678" y="569" width="36" height="5" fill="#2b2f34"/><rect x="714" y="569" width="24" height="5" fill="#2b2f34"/><rect x="738" y="564" width="24" height="10" fill="#8a6a12"/><rect x="768" y="564" width="30" height="10" fill="#2b2f34"/><rect x="798" y="564" width="36" height="10" fill="#555c64"/><rect x="840" y="564" width="12" height="10" fill="#c4532d"/><rect x="852" y="564" width="6" height="10" fill="#2b2f34"/><rect x="858" y="569" width="30" height="5" fill="#8a6a12"/><rect x="888" y="564" width="30" height="10" fill="#555c64"/><rect x="918" y="564" width="12" height="10" fill="#555c64"/><rect x="936" y="564" width="24" height="10" fill="#7d858e"/><text x="40" y="604" fill="#c9ced4" font-family="'JetBrains Mono','SFMono-Regular',Consolas,'Liberation Mono',Menlo,monospace" font-size="16.5" xml:space="preserve">ML engineering, MLOps and LLM applications that hold up in real workflows. Open to roles</text><text x="40" y="629" fill="#c9ced4" font-family="'JetBrains Mono','SFMono-Regular',Consolas,'Liberation Mono',Menlo,monospace" font-size="16.5" xml:space="preserve">in ML Engineering and Agentic AI.</text><rect x="0.5" y="0.5" width="999" height="673" fill="none" stroke="#23272c"/></svg>