<svg xmlns="http://www.w3.org/2000/svg" width="490" height="250" viewBox="0 0 490 250" shape-rendering="crispEdges"><style>.flk{animation:flk 4s steps(1) infinite}@keyframes flk{0%{opacity:1}50%{opacity:.25}100%{opacity:1}}.eye{animation:eye 6s steps(1) infinite}@keyframes eye{0%,92%{fill:#050506}93%,97%{fill:#d4a017}98%{fill:#050506}}.blink{animation:blink 1.1s steps(1) infinite}@keyframes blink{50%{opacity:0}}@media (prefers-reduced-motion:reduce){*{animation:none!important}}</style><rect width="490" height="250" fill="#111316"/><rect x="0" y="0" width="490" height="4" fill="#2b2f34"/><rect x="0" y="0" width="45" height="4" fill="#d4a017"/><g fill="#d4a017"><rect x="30" y="28" width="6" height="2"/><rect x="28" y="30" width="2" height="2"/><rect x="36" y="30" width="2" height="2"/><rect x="28" y="32" width="2" height="2"/><rect x="34" y="32" width="4" height="2"/><rect x="28" y="34" width="2" height="2"/><rect x="32" y="34" width="2" height="2"/><rect x="36" y="34" width="2" height="2"/><rect x="28" y="36" width="4" height="2"/><rect x="36" y="36" width="2" height="2"/><rect x="28" y="38" width="2" height="2"/><rect x="36" y="38" width="2" height="2"/><rect x="30" y="40" width="6" height="2"/><rect x="42" y="28" width="6" height="2"/><rect x="40" y="30" width="2" height="2"/><rect x="48" y="30" width="2" height="2"/><rect x="48" y="32" width="2" height="2"/><rect x="46" y="34" width="2" height="2"/><rect x="44" y="36" width="2" height="2"/><rect x="42" y="38" width="2" height="2"/><rect x="40" y="40" width="10" height="2"/></g><g fill="#e6e1d6"><rect x="28" y="50" width="16" height="4"/><rect x="28" y="54" width="4" height="4"/><rect x="44" y="54" width="4" height="4"/><rect x="28" y="58" width="4" height="4"/><rect x="44" y="58" width="4" height="4"/><rect x="28" y="62" width="16" height="4"/><rect x="28" y="66" width="4" height="4"/><rect x="28" y="70" width="4" height="4"/><rect x="28" y="74" width="4" height="4"/><rect x="56" y="50" width="12" height="4"/><rect x="52" y="54" width="4" height="4"/><rect x="68" y="54" width="4" height="4"/><rect x="52" y="58" width="4" height="4"/><rect x="68" y="58" width="4" height="4"/><rect x="52" y="62" width="20" height="4"/><rect x="52" y="66" width="4" height="4"/><rect x="68" y="66" width="4" height="4"/><rect x="52" y="70" width="4" height="4"/><rect x="68" y="70" width="4" height="4"/><rect x="52" y="74" width="4" height="4"/><rect x="68" y="74" width="4" height="4"/><rect x="76" y="50" width="4" height="4"/><rect x="92" y="50" width="4" height="4"/><rect x="76" y="54" width="4" height="4"/><rect x="92" y="54" width="4" height="4"/><rect x="80" y="58" width="4" height="4"/><rect x="88" y="58" width="4" height="4"/><rect x="84" y="62" width="4" height="4"/><rect x="84" y="66" width="4" height="4"/><rect x="84" y="70" width="4" height="4"/><rect x="84" y="74" width="4" height="4"/><rect x="104" y="50" width="16" height="4"/><rect x="100" y="54" width="4" height="4"/><rect x="100" y="58" width="4" height="4"/><rect x="100" y="62" width="4" height="4"/><rect x="108" y="62" width="12" height="4"/><rect x="100" y="66" width="4" height="4"/><rect x="116" y="66" width="4" height="4"/><rect x="100" y="70" width="4" height="4"/><rect x="116" y="70" width="4" height="4"/><rect x="104" y="74" width="12" height="4"/><rect x="128" y="50" width="12" height="4"/><rect x="124" y="54" width="4" height="4"/><rect x="140" y="54" width="4" height="4"/><rect x="124" y="58" width="4" height="4"/><rect x="140" y="58" width="4" height="4"/><rect x="124" y="62" width="20" height="4"/><rect x="124" y="66" width="4" height="4"/><rect x="140" y="66" width="4" height="4"/><rect x="124" y="70" width="4" height="4"/><rect x="140" y="70" width="4" height="4"/><rect x="124" y="74" width="4" height="4"/><rect x="140" y="74" width="4" height="4"/><rect x="148" y="50" width="20" height="4"/><rect x="156" y="54" width="4" height="4"/><rect x="156" y="58" width="4" height="4"/><rect x="156" y="62" width="4" height="4"/><rect x="156" y="66" width="4" height="4"/><rect x="156" y="70" width="4" height="4"/><rect x="156" y="74" width="4" height="4"/><rect x="172" y="50" width="20" height="4"/><rect x="172" y="54" width="4" height="4"/><rect x="172" y="58" width="4" height="4"/><rect x="172" y="62" width="16" height="4"/><rect x="172" y="66" width="4" height="4"/><rect x="172" y="70" width="4" height="4"/><rect x="172" y="74" width="20" height="4"/></g><text x="28" y="126" fill="#c9ced4" font-family="'JetBrains Mono','SFMono-Regular',Consolas,'Liberation Mono',Menlo,monospace" font-size="13" xml:space="preserve">Card authorization gateway built around one pure state</text><text x="28" y="146" fill="#c9ced4" font-family="'JetBrains Mono','SFMono-Regular',Consolas,'Liberation Mono',Menlo,monospace" font-size="13" xml:space="preserve">machine, for when the issuer goes silent mid-auth.</text><text x="28" y="166" fill="#c9ced4" font-family="'JetBrains Mono','SFMono-Regular',Consolas,'Liberation Mono',Menlo,monospace" font-size="13" xml:space="preserve">Idempotent retries, reconciliation, property tests.</text><g fill="#d4a017"><rect x="30" y="196" width="2" height="2"/><rect x="32" y="198" width="2" height="2"/><rect x="34" y="200" width="2" height="2"/><rect x="36" y="202" width="2" height="2"/><rect x="34" y="204" width="2" height="2"/><rect x="32" y="206" width="2" height="2"/><rect x="30" y="208" width="2" height="2"/><rect x="54" y="196" width="6" height="2"/><rect x="52" y="198" width="2" height="2"/><rect x="60" y="198" width="2" height="2"/><rect x="52" y="200" width="2" height="2"/><rect x="60" y="200" width="2" height="2"/><rect x="52" y="202" width="10" height="2"/><rect x="52" y="204" width="2" height="2"/><rect x="60" y="204" width="2" height="2"/><rect x="52" y="206" width="2" height="2"/><rect x="60" y="206" width="2" height="2"/><rect x="52" y="208" width="2" height="2"/><rect x="60" y="208" width="2" height="2"/><rect x="64" y="196" width="8" height="2"/><rect x="64" y="198" width="2" height="2"/><rect x="72" y="198" width="2" height="2"/><rect x="64" y="200" width="2" height="2"/><rect x="72" y="200" width="2" height="2"/><rect x="64" y="202" width="8" height="2"/><rect x="64" y="204" width="2" height="2"/><rect x="64" y="206" width="2" height="2"/><rect x="64" y="208" width="2" height="2"/><rect x="76" y="196" width="8" height="2"/><rect x="76" y="198" width="2" height="2"/><rect x="84" y="198" width="2" height="2"/><rect x="76" y="200" width="2" height="2"/><rect x="84" y="200" width="2" height="2"/><rect x="76" y="202" width="8" height="2"/><rect x="76" y="204" width="2" height="2"/><rect x="76" y="206" width="2" height="2"/><rect x="76" y="208" width="2" height="2"/><rect x="88" y="196" width="2" height="2"/><rect x="88" y="198" width="2" height="2"/><rect x="88" y="200" width="2" height="2"/><rect x="88" y="202" width="2" height="2"/><rect x="88" y="204" width="2" height="2"/><rect x="88" y="206" width="2" height="2"/><rect x="88" y="208" width="10" height="2"/><rect x="100" y="196" width="2" height="2"/><rect x="108" y="196" width="2" height="2"/><rect x="100" y="198" width="2" height="2"/><rect x="108" y="198" width="2" height="2"/><rect x="102" y="200" width="2" height="2"/><rect x="106" y="200" width="2" height="2"/><rect x="104" y="202" width="2" height="2"/><rect x="104" y="204" width="2" height="2"/><rect x="104" y="206" width="2" height="2"/><rect x="104" y="208" width="2" height="2"/><rect x="116" y="196" width="2" height="2"/><rect x="114" y="198" width="2" height="2"/><rect x="112" y="200" width="2" height="2"/><rect x="112" y="202" width="2" height="2"/><rect x="112" y="204" width="2" height="2"/><rect x="114" y="206" width="2" height="2"/><rect x="116" y="208" width="2" height="2"/><rect x="126" y="196" width="8" height="2"/><rect x="124" y="198" width="2" height="2"/><rect x="124" y="200" width="2" height="2"/><rect x="126" y="202" width="6" height="2"/><rect x="132" y="204" width="2" height="2"/><rect x="132" y="206" width="2" height="2"/><rect x="124" y="208" width="8" height="2"/><rect x="136" y="196" width="10" height="2"/><rect x="140" y="198" width="2" height="2"/><rect x="140" y="200" width="2" height="2"/><rect x="140" y="202" width="2" height="2"/><rect x="140" y="204" width="2" height="2"/><rect x="140" y="206" width="2" height="2"/><rect x="140" y="208" width="2" height="2"/><rect x="150" y="196" width="6" height="2"/><rect x="148" y="198" width="2" height="2"/><rect x="156" y="198" width="2" height="2"/><rect x="148" y="200" width="2" height="2"/><rect x="156" y="200" width="2" height="2"/><rect x="148" y="202" width="10" height="2"/><rect x="148" y="204" width="2" height="2"/><rect x="156" y="204" width="2" height="2"/><rect x="148" y="206" width="2" height="2"/><rect x="156" y="206" width="2" height="2"/><rect x="148" y="208" width="2" height="2"/><rect x="156" y="208" width="2" height="2"/><rect x="160" y="196" width="10" height="2"/><rect x="164" y="198" width="2" height="2"/><rect x="164" y="200" width="2" height="2"/><rect x="164" y="202" width="2" height="2"/><rect x="164" y="204" width="2" height="2"/><rect x="164" y="206" width="2" height="2"/><rect x="164" y="208" width="2" height="2"/><rect x="172" y="196" width="10" height="2"/><rect x="172" y="198" width="2" height="2"/><rect x="172" y="200" width="2" height="2"/><rect x="172" y="202" width="8" height="2"/><rect x="172" y="204" width="2" height="2"/><rect x="172" y="206" width="2" height="2"/><rect x="172" y="208" width="10" height="2"/><rect x="186" y="204" width="4" height="2"/><rect x="188" y="206" width="2" height="2"/><rect x="186" y="208" width="2" height="2"/><rect x="208" y="196" width="10" height="2"/><rect x="208" y="198" width="2" height="2"/><rect x="208" y="200" width="2" height="2"/><rect x="208" y="202" width="8" height="2"/><rect x="208" y="204" width="2" height="2"/><rect x="208" y="206" width="2" height="2"/><rect x="208" y="208" width="10" height="2"/><rect x="220" y="196" width="2" height="2"/><rect x="228" y="196" width="2" height="2"/><rect x="220" y="198" width="2" height="2"/><rect x="228" y="198" width="2" height="2"/><rect x="220" y="200" width="2" height="2"/><rect x="228" y="200" width="2" height="2"/><rect x="220" y="202" width="2" height="2"/><rect x="228" y="202" width="2" height="2"/><rect x="220" y="204" width="2" height="2"/><rect x="228" y="204" width="2" height="2"/><rect x="222" y="206" width="2" height="2"/><rect x="226" y="206" width="2" height="2"/><rect x="224" y="208" width="2" height="2"/><rect x="232" y="196" width="10" height="2"/><rect x="232" y="198" width="2" height="2"/><rect x="232" y="200" width="2" height="2"/><rect x="232" y="202" width="8" height="2"/><rect x="232" y="204" width="2" height="2"/><rect x="232" y="206" width="2" height="2"/><rect x="232" y="208" width="10" height="2"/><rect x="244" y="196" width="2" height="2"/><rect x="252" y="196" width="2" height="2"/><rect x="244" y="198" width="4" height="2"/><rect x="252" y="198" width="2" height="2"/><rect x="244" y="200" width="2" height="2"/><rect x="248" y="200" width="2" height="2"/><rect x="252" y="200" width="2" height="2"/><rect x="244" y="202" width="2" height="2"/><rect x="250" y="202" width="4" height="2"/><rect x="244" y="204" width="2" height="2"/><rect x="252" y="204" width="2" height="2"/><rect x="244" y="206" width="2" height="2"/><rect x="252" y="206" width="2" height="2"/><rect x="244" y="208" width="2" height="2"/><rect x="252" y="208" width="2" height="2"/><rect x="256" y="196" width="10" height="2"/><rect x="260" y="198" width="2" height="2"/><rect x="260" y="200" width="2" height="2"/><rect x="260" y="202" width="2" height="2"/><rect x="260" y="204" width="2" height="2"/><rect x="260" y="206" width="2" height="2"/><rect x="260" y="208" width="2" height="2"/><rect x="272" y="196" width="2" height="2"/><rect x="274" y="198" width="2" height="2"/><rect x="276" y="200" width="2" height="2"/><rect x="276" y="202" width="2" height="2"/><rect x="276" y="204" width="2" height="2"/><rect x="274" y="206" width="2" height="2"/><rect x="272" y="208" width="2" height="2"/><rect x="292" y="202" width="8" height="2"/><rect x="306" y="196" width="2" height="2"/><rect x="308" y="198" width="2" height="2"/><rect x="310" y="200" width="2" height="2"/><rect x="312" y="202" width="2" height="2"/><rect x="310" y="204" width="2" height="2"/><rect x="308" y="206" width="2" height="2"/><rect x="306" y="208" width="2" height="2"/><rect x="330" y="196" width="8" height="2"/><rect x="328" y="198" width="2" height="2"/><rect x="328" y="200" width="2" height="2"/><rect x="330" y="202" width="6" height="2"/><rect x="336" y="204" width="2" height="2"/><rect x="336" y="206" width="2" height="2"/><rect x="328" y="208" width="8" height="2"/><rect x="340" y="196" width="10" height="2"/><rect x="344" y="198" width="2" height="2"/><rect x="344" y="200" width="2" height="2"/><rect x="344" y="202" width="2" height="2"/><rect x="344" y="204" width="2" height="2"/><rect x="344" y="206" width="2" height="2"/><rect x="344" y="208" width="2" height="2"/><rect x="354" y="196" width="6" height="2"/><rect x="352" y="198" width="2" height="2"/><rect x="360" y="198" width="2" height="2"/><rect x="352" y="200" width="2" height="2"/><rect x="360" y="200" width="2" height="2"/><rect x="352" y="202" width="10" height="2"/><rect x="352" y="204" width="2" height="2"/><rect x="360" y="204" width="2" height="2"/><rect x="352" y="206" width="2" height="2"/><rect x="360" y="206" width="2" height="2"/><rect x="352" y="208" width="2" height="2"/><rect x="360" y="208" width="2" height="2"/><rect x="364" y="196" width="10" height="2"/><rect x="368" y="198" width="2" height="2"/><rect x="368" y="200" width="2" height="2"/><rect x="368" y="202" width="2" height="2"/><rect x="368" y="204" width="2" height="2"/><rect x="368" y="206" width="2" height="2"/><rect x="368" y="208" width="2" height="2"/><rect x="376" y="196" width="10" height="2"/><rect x="376" y="198" width="2" height="2"/><rect x="376" y="200" width="2" height="2"/><rect x="376" y="202" width="8" height="2"/><rect x="376" y="204" width="2" height="2"/><rect x="376" y="206" width="2" height="2"/><rect x="376" y="208" width="10" height="2"/></g><rect x="28" y="216" width="61" height="20" fill="none" stroke="#555c64"/><text x="59" y="230" text-anchor="middle" fill="#b9bfc6" font-family="'JetBrains Mono','SFMono-Regular',Consolas,'Liberation Mono',Menlo,monospace" font-size="11" letter-spacing="1">PYTHON</text><rect x="97.2" y="216" width="90" height="20" fill="none" stroke="#555c64"/><text x="142" y="230" text-anchor="middle" fill="#b9bfc6" font-family="'JetBrains Mono','SFMono-Regular',Consolas,'Liberation Mono',Menlo,monospace" font-size="11" letter-spacing="1">HYPOTHESIS</text><rect x="195.2" y="216" width="40" height="20" fill="none" stroke="#555c64"/><text x="215" y="230" text-anchor="middle" fill="#b9bfc6" font-family="'JetBrains Mono','SFMono-Regular',Consolas,'Liberation Mono',Menlo,monospace" font-size="11" letter-spacing="1">FSM</text><text x="462" y="230" text-anchor="end" fill="#7b828b" font-family="'JetBrains Mono','SFMono-Regular',Consolas,'Liberation Mono',Menlo,monospace" font-size="11" letter-spacing="1">VIEW REPO &#8594;</text><rect x="0.5" y="0.5" width="489" height="249" fill="none" stroke="#23272c"/></svg>